<?xml version="1.0" standalone="no"?>
<!DOCTYPE svg PUBLIC "-//W3C//DTD SVG 20010904//EN"
 "http://www.w3.org/TR/2001/REC-SVG-20010904/DTD/svg10.dtd">
<svg version="1.0" xmlns="http://www.w3.org/2000/svg"
 width="240.000000pt" height="210.000000pt" viewBox="0 0 240.000000 210.000000"
 preserveAspectRatio="xMidYMid meet">
<metadata>
Created by potrace 1.10, written by Peter Selinger 2001-2011
</metadata>
<g transform="translate(0.000000,210.000000) scale(0.050000,-0.050000)"
fill="#000000" stroke="none">
<path d="M3355 4048 c-3 -2 -553 -9 -1224 -16 -670 -7 -1220 -15 -1222 -17 -5
-6 32 -283 39 -290 24 -24 201 -11 194 15 -26 101 -25 131 3 97 42 -52 165
-57 164 -7 -2 63 375 55 435 -9 27 -30 58 -41 101 -37 76 7 100 56 28 56 -28
0 -57 10 -64 22 -10 16 42 19 184 10 108 -6 186 -7 172 0 -14 6 -20 20 -14 30
17 27 84 22 94 -7 6 -18 61 -23 207 -19 257 9 268 10 268 28 0 9 36 16 80 16
55 0 80 -9 80 -28 0 -31 84 -48 225 -44 52 1 97 -5 100 -13 12 -36 315 -27
315 10 0 19 9 35 20 35 11 0 18 11 15 25 -3 14 6 24 20 23 14 -1 45 -3 70 -5
37 -3 40 -7 15 -24 -22 -15 12 -20 120 -19 133 1 415 -10 470 -18 11 -2 -7
-26 -40 -53 l-60 -49 75 0 c55 0 75 -9 75 -31 0 -19 9 -26 23 -17 13 8 18 5
10 -7 -7 -11 7 -25 30 -32 31 -8 39 -22 32 -52 -6 -22 -3 -41 8 -41 11 0 13
-10 6 -22 -10 -15 1 -18 33 -9 41 11 43 10 13 -9 -38 -24 -46 -71 -15 -90 11
-7 15 1 8 17 -6 16 -1 35 11 42 13 8 21 -10 21 -50 0 -48 -7 -61 -30 -52 -18
7 -30 0 -30 -17 0 -16 -20 -39 -45 -52 -73 -39 -100 -98 -45 -98 17 0 30 11
30 25 1 17 7 15 20 -5 17 -26 23 -26 38 -2 34 52 68 -127 41 -214 -12 -41 -31
-101 -40 -133 -12 -37 -11 -63 1 -71 28 -17 30 -100 4 -163 -12 -29 -16 -58
-9 -65 6 -7 -3 -12 -20 -12 -18 0 -35 16 -39 35 -4 19 -6 -57 -5 -170 1 -117
-6 -205 -16 -205 -11 0 -14 -36 -6 -85 24 -159 29 -348 12 -407 -15 -49 -18
-51 -19 -13 -1 25 -11 45 -22 45 -12 0 -17 -20 -12 -45 27 -141 90 -161 95
-30 3 77 4 79 12 18 8 -69 -27 -183 -56 -183 -30 0 -31 -89 -3 -148 34 -71 43
-252 12 -252 -12 0 -33 -36 -48 -80 -15 -44 -33 -80 -41 -80 -22 0 -12 -41 26
-110 30 -54 33 -55 34 -16 1 30 10 41 29 34 47 -18 50 -84 10 -167 -49 -102
-53 -193 -6 -131 28 37 30 32 20 -70 -5 -60 -10 -117 -11 -125 0 -8 -8 -14
-16 -12 -8 2 -28 -2 -45 -10 -61 -26 -230 36 -228 84 1 35 -11 43 -60 45 -34
0 -51 6 -37 11 35 14 31 60 -5 74 -16 7 -30 26 -30 42 0 20 -18 31 -50 31 -31
0 -50 11 -50 30 0 17 -13 30 -29 30 -29 0 -55 57 -59 130 -2 25 -16 39 -37 37
-25 -2 -36 13 -38 50 -2 45 -4 46 -11 10 -22 -116 -64 -64 -52 64 7 83 4 129
-9 129 -11 0 -25 18 -31 40 -20 78 -57 43 -48 -45 5 -47 5 -65 0 -40 -5 25
-23 45 -40 45 -22 0 -25 -7 -10 -25 30 -36 -20 -103 -53 -70 -17 17 -23 17
-23 0 0 -13 -14 -19 -30 -12 -22 8 -27 2 -18 -21 7 -17 31 -32 53 -32 40 0
115 -68 115 -104 0 -11 14 -32 30 -49 17 -16 30 -20 30 -8 0 11 9 21 20 21 11
0 18 -7 16 -15 -9 -34 33 -119 92 -187 104 -120 132 -158 132 -177 0 -10 31
-53 69 -94 73 -79 68 -127 -12 -127 -48 0 -72 58 -35 82 18 11 -8 17 -76 18
-81 0 -105 8 -113 35 -6 20 -9 14 -7 -15 2 -28 17 -51 34 -53 17 -1 39 -4 50
-7 11 -3 27 -4 35 -2 8 1 15 -8 15 -20 0 -14 -20 -17 -53 -9 -32 8 -59 4 -67
-10 -8 -12 -35 -19 -61 -16 -44 7 -44 9 -13 41 50 49 43 56 -51 54 -47 0 -74
-6 -60 -11 68 -28 24 -82 -73 -91 -153 -15 -222 1 -222 51 -1 34 -5 37 -19 14
-38 -59 -300 -45 -304 17 -2 50 -3 50 -11 5 l-9 -47 -462 7 c-346 5 -464 13
-470 32 -5 14 -42 25 -87 25 -53 0 -83 10 -91 31 -10 26 -15 26 -34 1 -45 -58
-264 -49 -279 11 -9 31 -23 39 -52 32 -60 -16 -76 19 -79 173 -3 177 -23 201
-23 28 0 -76 -12 -155 -29 -187 -16 -31 -24 -64 -19 -73 6 -9 2 -16 -8 -16
-18 0 -41 173 -55 406 -5 87 1 119 22 127 16 6 24 19 19 28 -6 9 -2 22 10 29
30 19 24 50 -10 50 -16 0 -31 11 -32 25 -25 252 6 484 48 370 5 -14 16 0 24
30 18 70 1 116 -49 129 -59 15 -68 74 -22 149 23 37 41 96 41 131 0 65 30 106
45 62 5 -16 28 -10 71 21 70 50 239 56 229 8 -3 -14 4 -25 15 -25 11 0 20 27
20 60 0 57 -4 60 -80 60 -72 0 -80 5 -80 50 0 77 -69 68 -74 -10 -2 -33 -6
-72 -8 -87 -7 -41 -78 -14 -78 29 0 21 -9 38 -20 38 -20 0 -29 -31 -21 -70 7
-34 -26 9 -35 46 -4 19 -7 77 -5 129 1 53 -7 95 -18 95 -28 0 -27 74 1 91 12
7 16 35 9 61 -6 26 -4 48 6 48 10 0 24 29 30 65 6 36 17 92 24 125 l12 60 132
-7 c87 -4 122 -13 103 -25 -18 -11 21 -17 108 -18 86 0 132 -7 124 -20 -7 -11
-3 -20 9 -20 12 0 21 -50 21 -123 0 -153 17 -146 24 9 l5 114 185 0 c175 0
250 27 148 54 -21 5 -44 25 -50 43 -7 18 -18 45 -24 60 -10 20 -2 24 30 14 38
-12 42 -6 43 63 2 63 5 69 21 36 15 -32 16 -28 7 20 -6 33 -16 107 -22 165
-11 93 -17 105 -58 105 -26 0 -52 8 -58 18 -6 10 -81 15 -166 10 -382 -20
-525 -21 -525 -7 0 9 20 20 45 25 35 7 32 9 -15 11 -53 3 -60 -4 -64 -56 -3
-47 2 -57 28 -47 25 10 30 5 19 -22 -7 -19 -14 -68 -16 -109 -3 -72 -3 -72
-17 17 l-14 90 -3 -85 c-4 -108 -43 -112 -43 -5 0 56 -9 80 -29 80 -32 0 -48
39 -55 133 -4 56 -12 64 -75 73 -39 6 -86 16 -104 23 -29 12 -31 4 -17 -63 19
-84 33 -596 51 -1766 14 -895 55 -1258 145 -1260 7 -1 73 -10 144 -20 322 -49
1329 -100 1978 -100 l668 0 212 61 c199 57 262 93 262 151 0 14 -11 29 -25 35
-16 6 -14 10 7 11 38 2 73 74 91 188 7 46 19 98 28 114 9 17 25 377 38 800 12
424 31 985 43 1247 14 308 15 484 2 497 -12 12 -9 52 9 111 20 68 21 96 5 106
-13 8 -16 25 -8 39 8 13 17 66 20 117 2 51 15 164 27 250 12 87 16 169 8 184
-13 22 -1287 59 -1310 37z m1172 -129 c97 -76 47 -219 -76 -219 -108 0 -136
101 -57 209 44 61 66 63 133 10z m-2967 -792 c-112 -18 -137 -29 -146 -62 -6
-22 -10 -14 -12 20 -2 54 1 55 103 52 58 -1 83 -6 55 -10z m-134 -377 c40 -13
41 -15 6 -24 -57 -15 -72 29 -68 204 l4 160 7 -163 c6 -147 11 -164 51 -177z
m610 185 l-6 -145 -290 0 -290 0 -6 145 -6 145 302 0 302 0 -6 -145z m-827
-67 c8 -34 22 -48 42 -40 19 7 29 -2 29 -29 0 -28 -14 -39 -50 -39 -31 0 -50
-11 -50 -30 0 -16 -10 -30 -22 -30 -19 0 -23 168 -4 205 17 31 42 13 55 -37z"/>
<path d="M1640 2941 c0 -61 7 -77 29 -69 16 6 24 24 18 39 -7 19 2 25 31 19
34 -6 42 2 41 46 -2 48 -4 50 -19 14 -15 -34 -17 -35 -19 -5 -3 82 -81 39 -81
-44z"/>
<path d="M1780 2982 c0 -21 -3 -51 -7 -65 -3 -15 -3 -20 2 -12 15 27 42 16 51
-20 8 -30 10 -30 12 -2 2 35 54 64 84 46 10 -6 18 12 18 40 0 58 -32 69 -46
16 -9 -33 -9 -33 -12 0 -3 51 -102 48 -102 -3z"/>
<path d="M1435 3786 c36 -5 90 -5 120 0 30 4 1 8 -65 8 -66 0 -91 -4 -55 -8z"/>
<path d="M2020 3782 c0 -10 14 -23 30 -29 17 -7 30 -2 30 10 0 12 14 16 30 10
17 -7 30 -3 30 8 0 10 -27 19 -60 19 -33 0 -60 -8 -60 -18z"/>
<path d="M1177 3701 c-32 -36 -43 -63 -29 -69 12 -5 6 -10 -13 -10 -38 -2 -49
-71 -14 -93 14 -8 11 -21 -8 -36 -40 -31 -32 -102 17 -151 22 -22 52 -54 66
-71 16 -20 57 -30 110 -30 65 1 75 6 44 19 -29 12 -31 18 -9 19 50 2 212 86
184 96 -14 4 -25 27 -25 50 0 39 2 39 37 8 44 -40 74 -19 36 25 -51 60 -53
100 -7 133 41 30 41 31 4 26 -22 -3 -51 1 -65 10 -36 22 -65 -2 -63 -53 2 -34
5 -36 12 -9 16 62 44 37 33 -30 -6 -36 -12 -85 -14 -108 -4 -61 -26 -77 -60
-43 -22 22 -26 62 -18 160 l10 132 62 -18 c80 -23 79 -23 66 12 -15 39 5 38
50 -3 29 -26 37 -27 37 -6 0 16 15 6 34 -21 l34 -48 23 58 c24 57 24 57 39 11
11 -36 18 -40 32 -19 47 74 33 80 -199 88 -91 4 -171 12 -178 18 -38 39 -178
9 -228 -47z m134 -176 c-5 -107 -10 -202 -11 -211 0 -9 -8 -11 -19 -5 -10 7
-15 59 -11 116 5 58 9 148 9 200 1 52 10 95 22 95 14 0 17 -65 10 -195z"/>
<path d="M620 3719 c-22 -13 -23 -18 -4 -19 15 0 21 -9 14 -20 -7 -11 6 -20
29 -20 25 0 41 13 41 34 0 29 4 29 29 -5 17 -22 30 -28 30 -14 1 14 18 25 39
25 21 0 43 -11 49 -25 7 -19 15 -18 30 4 12 17 19 31 17 33 -22 15 -251 22
-274 7z"/>
<path d="M140 3561 c-2 -83 -5 -173 -6 -201 -2 -27 3 -52 11 -55 47 -16 779 0
740 16 -60 24 -57 34 20 67 l65 28 -75 -11 c-71 -10 -75 -7 -77 47 l-3 58 -13
-60 c-7 -33 -6 -63 2 -67 9 -3 16 -15 16 -26 0 -11 -8 -14 -18 -8 -10 6 -22 0
-27 -14 -7 -19 -16 -19 -43 3 -18 16 -29 40 -24 55 6 15 5 41 -1 59 -16 40
-46 -1 -47 -62 0 -40 -455 -54 -462 -14 -16 90 -10 284 9 285 13 0 41 14 63
31 38 28 35 30 -44 25 l-84 -5 -2 -151z"/>
<path d="M320 3696 c0 -10 8 -13 18 -7 11 6 32 -1 47 -17 18 -18 39 -22 56
-12 15 10 36 12 46 6 11 -7 13 -2 6 9 -7 12 2 26 22 31 19 5 -17 9 -80 9 -63
0 -115 -9 -115 -19z"/>
<path d="M1841 3692 c-15 -19 -20 -73 -13 -155 6 -70 6 -111 0 -92 -6 19 -19
35 -29 35 -28 0 -23 55 6 67 14 5 4 11 -21 11 -26 1 -64 11 -86 23 -47 25 -81
9 -65 -32 7 -18 29 -26 59 -20 26 4 53 0 59 -10 6 -11 -11 -19 -37 -19 -47 0
-104 -43 -84 -63 21 -21 129 8 116 30 -8 13 3 10 23 -6 29 -24 34 -49 25 -137
-9 -85 -6 -102 14 -86 14 12 29 18 34 14 4 -5 9 13 11 40 7 116 -81 108 1250
107 1331 -1 1298 -4 1270 107 -19 73 -32 74 -1315 74 l-1178 0 0 58 c0 32 11
63 25 69 16 6 13 10 -8 11 -17 1 -43 -11 -56 -26z"/>
<path d="M2795 3705 c47 -4 123 -4 170 0 47 5 9 8 -85 8 -93 0 -132 -3 -85 -8z"/>
<path d="M3375 3706 c36 -5 94 -5 130 0 36 4 7 8 -65 8 -71 0 -101 -4 -65 -8z"/>
<path d="M3993 3707 c-34 -35 -3 -47 112 -43 l125 4 -119 7 c-84 5 -111 13
-90 26 16 10 19 19 7 19 -12 0 -27 -6 -35 -13z"/>
<path d="M965 3652 c19 -14 35 -43 35 -64 -1 -35 -3 -35 -35 5 -42 52 -188 77
-169 29 7 -17 2 -23 -11 -15 -12 8 -28 5 -34 -5 -7 -12 -108 -16 -241 -12
-215 7 -230 5 -230 -30 0 -55 42 -72 72 -30 22 29 29 31 38 8 8 -21 54 -28
195 -26 240 3 231 1 239 53 9 64 88 72 107 11 8 -25 24 -53 37 -61 15 -10 15
-14 -3 -15 -14 0 -25 -13 -25 -30 0 -20 20 -30 62 -30 61 0 62 0 48 85 -8 47
-15 101 -17 120 -1 24 -18 35 -52 34 -47 0 -48 -3 -16 -27z"/>
<path d="M1720 3380 c0 -12 -21 -15 -50 -8 -44 11 -50 6 -52 -45 -2 -56 -2
-56 -16 -7 -9 33 -19 41 -29 25 -8 -13 -52 -34 -97 -46 -62 -17 -76 -27 -54
-41 32 -22 187 -19 252 5 28 10 50 7 59 -7 8 -14 20 -6 31 23 10 28 9 56 -4
70 -11 14 -14 31 -6 38 7 7 2 13 -11 13 -12 0 -23 -9 -23 -20z"/>
<path d="M4160 3320 c0 -18 -23 -21 -80 -12 -49 8 -80 5 -80 -8 0 -11 29 -19
65 -19 75 1 242 33 192 37 -19 1 -48 7 -65 14 -19 7 -32 2 -32 -12z"/>
<path d="M2193 3264 c-21 -33 25 -77 46 -45 26 41 43 18 47 -67 3 -54 13 -72
39 -72 19 0 35 -13 35 -30 0 -16 9 -30 20 -30 11 0 20 -22 20 -50 0 -35 11
-50 37 -50 29 0 35 11 28 50 -7 34 -1 50 18 50 19 1 20 5 4 15 -12 8 -26 33
-30 55 -5 24 -23 39 -45 37 -24 -2 -45 17 -59 55 -12 32 -33 58 -47 58 -14 0
-26 9 -26 20 0 24 -73 27 -87 4z"/>
<path d="M3953 3247 c-20 -21 -16 -91 5 -78 10 6 23 0 29 -14 5 -14 11 4 11
40 2 62 -15 81 -45 52z"/>
<path d="M3820 3139 c0 -12 -7 -17 -16 -12 -9 6 -17 -9 -19 -33 -1 -24 -8 -73
-15 -109 -7 -36 -3 -65 7 -65 12 0 11 -28 -3 -71 -17 -58 -16 -75 7 -90 51
-32 74 -21 64 31 -7 37 -1 50 23 50 24 0 32 20 32 79 0 44 10 102 23 129 18
39 17 58 -3 81 -28 35 -100 42 -100 10z"/>
<path d="M3360 2999 c0 -64 7 -80 31 -75 17 3 31 13 30 21 -1 8 -1 42 -1 75 0
40 -10 60 -30 60 -22 0 -30 -22 -30 -81z"/>
<path d="M3328 2865 c-6 -19 -19 -51 -30 -70 -15 -28 -10 -35 22 -35 32 0 40
13 40 70 0 75 -15 91 -32 35z"/>
<path d="M3165 2746 c20 -5 30 -17 24 -28 -6 -10 23 -17 65 -16 42 2 58 7 36
12 -22 6 -49 18 -59 28 -10 10 -37 17 -60 16 -34 -2 -35 -4 -6 -12z"/>
<path d="M3440 2738 c-46 -9 -16 -13 90 -14 160 -1 181 7 50 20 -38 3 -101 1
-140 -6z"/>
<path d="M3753 2690 c7 -19 -1 -30 -22 -30 -26 0 -28 -8 -12 -39 28 -51 26
-61 -9 -61 -23 0 -30 -27 -30 -120 0 -66 8 -120 17 -120 18 0 10 -636 -8 -718
l-11 -48 -27 51 c-37 72 -47 244 -16 273 16 15 24 70 22 148 l-3 124 -14 -100
-14 -100 -7 140 c-3 77 -5 160 -4 185 3 46 -23 60 -45 25 -24 -39 -51 -19 -38
29 11 47 9 48 -50 32 -65 -19 -99 61 -37 86 14 5 8 12 -15 14 -23 2 -10 10 30
18 86 16 120 6 120 -34 0 -18 7 -25 15 -17 7 8 25 -15 38 -52 24 -65 24 -64
25 52 l2 118 -545 -15 c-300 -8 -549 -18 -553 -23 -20 -19 21 -26 238 -38 363
-20 285 -30 -237 -30 -418 0 -483 -4 -483 -30 0 -24 16 -28 80 -18 l80 13 0
-92 c0 -89 1 -92 36 -58 29 28 31 38 10 51 -49 30 -5 54 96 54 55 0 186 11
291 23 161 20 193 19 208 -5 12 -18 18 -19 19 -4 0 23 60 21 101 -5 12 -7 39
3 60 22 30 27 39 29 39 7 1 -23 4 -22 20 2 14 22 19 23 20 4 0 -15 8 -21 18
-15 10 6 24 0 30 -14 7 -14 9 0 5 30 -9 65 18 93 33 35 7 -27 27 -40 61 -40
56 0 85 -32 76 -85 -3 -22 8 -35 31 -36 105 -3 220 -286 170 -418 -17 -47 -19
-46 -32 25 -8 41 -22 74 -33 74 -24 0 -25 -206 -1 -231 10 -10 22 -37 28 -59
5 -22 10 -2 12 45 3 132 42 100 42 -35 l0 -120 -90 0 c-69 0 -90 7 -90 32 0
17 -17 36 -38 42 -38 10 -82 84 -82 137 0 16 -8 29 -19 29 -10 0 -23 34 -27
75 -5 44 -7 34 -4 -25 2 -55 -3 -122 -11 -150 -9 -29 -18 70 -21 240 l-7 290
-6 -224 c-8 -284 -23 -315 -155 -320 -54 -2 -102 -13 -106 -25 -14 -40 -44
-21 -44 29 0 28 -9 50 -20 50 -10 0 -25 -22 -32 -50 -9 -37 -26 -51 -65 -52
-52 -3 -51 -3 7 -16 l60 -14 -80 -13 c-44 -7 -143 -19 -220 -25 -77 -6 -174
-16 -215 -21 -58 -7 -75 -3 -75 21 0 22 -22 30 -80 30 -44 0 -80 -9 -80 -20 0
-11 -36 -20 -80 -20 -44 0 -80 -9 -80 -21 0 -14 272 -16 857 -7 l857 14 12
-47 c7 -26 10 -50 7 -53 -3 -3 -446 -7 -984 -9 -1026 -4 -1066 -8 -1068 -92
-1 -14 -23 -25 -51 -25 -45 0 -47 -4 -27 -48 23 -51 118 -60 133 -13 5 13 18
32 31 42 123 103 104 99 421 103 586 8 669 8 873 -10 147 -12 209 -11 219 6 7
12 22 21 32 19 102 -20 468 5 468 31 0 17 -9 30 -20 30 -11 0 -20 14 -20 30 0
45 30 36 72 -21 l38 -50 11 75 12 76 24 -58 24 -57 54 72 c71 92 93 92 78 -2
-7 -41 -13 -100 -13 -131 0 -31 -8 -51 -19 -45 -28 17 -47 -26 -51 -116 -2
-45 -14 -84 -27 -89 -38 -12 -26 -44 17 -44 22 0 40 10 40 21 0 12 7 17 15 12
9 -5 16 31 15 82 0 50 11 105 24 123 14 18 25 52 25 77 1 35 13 45 52 45 45 0
48 5 28 42 -13 23 -34 36 -51 30 -19 -7 -28 4 -28 39 0 39 -10 49 -50 49 -31
0 -50 11 -50 30 0 36 -33 40 -47 5 -17 -42 -12 89 6 185 10 49 11 94 3 100 -8
5 -23 28 -33 50 -13 29 -22 -20 -30 -170 -11 -199 -11 -193 -15 115 -4 300 13
401 44 274 7 -27 29 -66 50 -87 20 -20 42 -60 50 -90 12 -47 17 -50 43 -24 36
36 38 85 4 100 -20 10 -20 14 0 24 14 6 24 44 24 85 -1 64 -4 67 -20 28 -22
-55 -59 -57 -120 -8 -57 46 -42 143 21 143 27 0 40 13 40 40 0 36 21 49 65 42
8 -1 15 10 15 26 0 15 18 32 40 38 22 6 40 20 40 32 0 12 -18 22 -40 22 -25 0
-40 13 -40 35 -1 29 -4 30 -19 6 -12 -20 -11 -35 4 -44 27 -17 -63 -57 -126
-57 -26 0 -34 -10 -26 -31 7 -18 3 -51 -9 -75 -12 -24 -26 -57 -31 -74 -10
-31 -20 92 -14 183 2 29 -6 59 -18 66 -12 8 1 32 34 61 l55 49 -54 0 c-41 1
-52 -7 -43 -29z"/>
<path d="M2809 2670 c-56 -13 -211 -23 -345 -22 -174 1 -246 -5 -253 -22 -6
-17 8 -22 45 -16 70 11 615 28 1074 32 350 4 354 4 150 19 -432 31 -571 33
-671 9z"/>
<path d="M1820 2190 c0 -266 -7 -390 -20 -370 -14 22 -19 7 -20 -55 0 -62 -8
-85 -30 -85 -16 0 -30 -9 -30 -20 0 -11 15 -20 33 -20 27 0 30 -15 20 -90 -14
-100 61 -136 106 -51 27 50 28 1000 1 1041 -11 17 -20 21 -20 10 0 -11 -9 -6
-20 10 -13 20 -20 -104 -20 -370z m-5 -645 c-5 -41 -8 -12 -8 65 -1 77 3 111
7 75 5 -35 5 -98 1 -140z"/>
<path d="M1934 2496 c-18 -12 -18 -15 1 -16 18 0 25 -37 23 -130 -2 -71 -11
-130 -21 -130 -27 0 -19 -85 14 -140 30 -49 30 -48 18 32 -12 88 16 120 84 94
29 -11 31 1 19 108 -14 129 10 179 75 154 21 -8 33 -2 33 16 0 30 -202 40
-246 12z m126 -35 c0 -10 -9 -24 -19 -30 -11 -7 -15 -24 -9 -38 5 -14 1 -48
-10 -74 -16 -41 -20 -33 -21 56 -1 81 6 105 29 105 17 0 30 -8 30 -19z"/>
<path d="M2420 2500 c39 -25 94 -25 110 0 7 12 -18 20 -64 20 -56 -1 -68 -6
-46 -20z"/>
<path d="M1269 2293 c-26 -29 -36 -153 -11 -153 10 0 22 38 27 85 10 100 11
97 -16 68z"/>
<path d="M2400 2242 c0 -21 -13 -43 -30 -49 -16 -7 -30 -26 -30 -42 0 -17 14
-31 30 -31 22 0 30 -22 30 -80 0 -95 -35 -108 -44 -17 -9 92 -56 99 -56 9 0
-51 -9 -72 -30 -72 -23 0 -30 -25 -30 -101 0 -65 -7 -97 -21 -88 -11 7 -33 3
-47 -10 -15 -12 -42 -16 -59 -9 -24 9 -33 1 -33 -29 0 -30 9 -38 32 -29 18 6
40 -1 49 -16 13 -21 4 -31 -37 -41 -45 -10 -41 -12 26 -13 82 0 212 30 145 34
-69 4 4 142 76 142 19 0 29 21 29 59 0 46 8 57 37 52 21 -5 36 4 36 21 0 15
-7 28 -16 28 -24 0 -21 75 3 90 13 8 13 25 0 50 -11 21 -20 69 -20 109 0 39
-9 71 -20 71 -11 0 -20 -17 -20 -38z"/>
<path d="M3040 2120 c0 -93 8 -160 20 -160 11 0 20 52 20 115 0 63 6 135 13
160 8 33 3 45 -21 45 -27 0 -32 -26 -32 -160z"/>
<path d="M3480 2078 c0 -48 47 -42 56 9 4 19 -6 33 -25 33 -18 0 -31 -17 -31
-42z"/>
<path d="M1960 1884 c0 -85 41 -158 77 -136 34 21 28 52 -9 52 -28 0 -29 5 -5
34 18 23 19 29 2 19 -18 -11 -25 2 -25 46 0 33 -9 61 -20 61 -11 0 -20 -34
-20 -76z"/>
<path d="M4264 1607 c9 -51 56 -57 56 -9 0 25 -13 42 -31 42 -19 0 -29 -14
-25 -33z"/>
<path d="M2476 1605 c47 -4 119 -4 160 0 40 5 2 8 -86 8 -88 0 -122 -3 -74 -8z"/>
<path d="M2906 1353 c8 -21 -12 -25 -93 -17 -57 5 -98 3 -91 -4 26 -27 261
-20 281 9 15 22 22 23 30 4 13 -31 87 -33 87 -3 0 12 -13 17 -29 11 -17 -6
-35 -3 -42 8 -19 31 -155 24 -143 -8z"/>
<path d="M3380 1361 c0 -21 118 -50 135 -33 17 17 3 25 -70 39 -36 6 -65 4
-65 -6z"/>
<path d="M1390 1215 c-8 -30 -27 -55 -42 -55 -30 0 -40 -184 -15 -276 18 -67
56 -42 63 43 4 40 15 73 25 73 11 0 19 10 19 22 0 12 18 46 39 77 53 75 47
143 -12 132 -25 -4 -49 3 -53 16 -5 12 -16 -2 -24 -32z"/>
<path d="M3960 1064 c0 -75 41 -130 86 -113 47 18 43 49 -6 49 -31 0 -40 13
-40 60 0 33 -9 60 -20 60 -11 0 -20 -25 -20 -56z"/>
<path d="M4160 839 c0 -44 21 -50 56 -15 34 34 30 47 -16 51 -27 2 -40 -10
-40 -36z"/>
<path d="M1440 760 c0 -83 49 -118 55 -40 1 22 -7 40 -19 40 -11 0 -16 18 -10
40 6 22 2 40 -8 40 -10 0 -18 -36 -18 -80z"/>
<path d="M3534 747 c-28 -27 -13 -70 21 -63 19 4 35 19 35 35 0 31 -35 49 -56
28z"/>
<path d="M1388 592 c-13 -34 5 -72 33 -72 25 0 24 74 -1 90 -11 7 -26 -1 -32
-18z"/>
</g>
</svg>
