<?xml version="1.0" standalone="no"?>
<!DOCTYPE svg PUBLIC "-//W3C//DTD SVG 20010904//EN"
 "http://www.w3.org/TR/2001/REC-SVG-20010904/DTD/svg10.dtd">
<svg version="1.0" xmlns="http://www.w3.org/2000/svg"
 width="300.000000pt" height="300.000000pt" viewBox="0 0 300.000000 300.000000"
 preserveAspectRatio="xMidYMid meet">
<metadata>
Created by potrace 1.10, written by Peter Selinger 2001-2011
</metadata>
<g transform="translate(0.000000,300.000000) scale(0.100000,-0.100000)"
fill="#000000" stroke="none">
<path d="M1742 2250 c-20 -17 -20 -18 -3 -34 20 -18 46 -22 35 -4 -12 18 25
39 48 27 39 -21 139 -114 142 -133 2 -6 21 -50 43 -97 33 -71 45 -106 55 -164
0 -2 6 -30 14 -61 7 -32 11 -61 8 -66 -3 -5 -1 -14 4 -21 13 -16 8 -336 -7
-412 -19 -100 -46 -208 -61 -240 -21 -47 -40 -98 -37 -102 7 -7 56 113 80 197
37 128 49 228 49 410 0 180 -11 249 -62 402 -38 113 -69 173 -117 224 -48 52
-77 70 -129 82 -33 7 -44 6 -62 -8z"/>
<path d="M1427 2240 c-103 -10 -191 -20 -194 -24 -9 -9 16 -8 172 9 77 8 165
15 195 16 30 1 66 5 80 9 41 13 -43 10 -253 -10z"/>
<path d="M1600 2224 c-9 -3 -20 -13 -25 -23 -6 -10 -18 -34 -29 -52 -20 -37
-19 -36 44 34 41 46 42 49 10 41z"/>
<path d="M1487 2170 c-19 -27 -24 -40 -15 -40 8 0 23 12 34 28 33 44 36 52 22
52 -7 0 -26 -18 -41 -40z"/>
<path d="M1353 2182 c-25 -4 -30 -17 -10 -25 6 -3 2 -6 -10 -6 -13 -1 -23 -6
-23 -12 0 -28 139 16 140 44 0 7 -43 6 -97 -1z"/>
<path d="M1192 2164 c-13 -9 -31 -13 -40 -10 -13 5 -12 2 3 -9 11 -9 19 -19
17 -23 -2 -4 5 -8 15 -10 15 -3 16 -1 3 8 -12 9 -8 11 20 7 35 -4 90 25 90 47
0 6 -5 4 -10 -4 -6 -10 -10 -11 -10 -2 0 17 -61 15 -88 -4z m73 -3 c-15 -13
-65 -23 -65 -12 0 12 18 19 50 20 14 1 20 -3 15 -8z"/>
<path d="M1089 2104 c-16 -20 -9 -24 28 -16 l32 7 -24 11 c-19 9 -27 9 -36 -2z"/>
<path d="M1040 2020 c-23 -45 -24 -50 -10 -50 6 0 10 9 10 19 0 11 14 31 31
45 27 23 28 26 10 26 -14 0 -27 -13 -41 -40z"/>
<path d="M1417 2008 c-8 -24 -18 -51 -22 -60 -5 -13 -2 -18 8 -18 10 0 23 22
35 60 16 47 18 60 7 60 -7 0 -20 -19 -28 -42z"/>
<path d="M1117 2019 c-17 -10 -47 -59 -47 -79 0 -5 19 -9 43 -9 l42 2 -40 8
-40 7 48 -1 c42 -2 49 1 53 20 4 15 11 20 22 16 15 -4 15 -3 2 6 -10 7 -11 11
-2 11 6 0 12 5 12 11 0 6 -7 9 -15 6 -8 -4 -17 -2 -20 3 -8 13 -35 12 -58 -1z
m43 -10 c0 -5 5 -7 11 -3 7 4 10 1 7 -7 -5 -14 -56 -31 -70 -23 -15 9 -8 24
15 34 30 12 37 12 37 -1z"/>
<path d="M1300 2022 c-14 -2 -31 -9 -39 -15 -12 -9 -13 -9 -7 1 4 6 2 12 -3
12 -6 0 -11 -7 -11 -15 0 -9 10 -15 26 -15 17 0 23 4 18 13 -6 10 -4 10 7 0 7
-7 17 -13 22 -13 4 0 5 6 1 13 -5 9 -3 9 7 -1 12 -11 12 -14 -1 -22 -12 -7
-12 -12 -3 -21 10 -10 14 -7 22 12 5 13 7 27 4 32 -2 4 0 6 5 5 6 -2 11 2 11
7 1 11 -19 13 -59 7z"/>
<path d="M1231 1966 c-9 -11 -6 -14 16 -18 41 -5 63 1 56 18 -3 8 -12 14 -20
14 -8 0 -11 -5 -7 -11 5 -8 1 -8 -14 0 -15 8 -23 7 -31 -3z"/>
<path d="M1769 1942 c-43 -19 -111 -103 -96 -119 3 -2 8 5 12 16 11 34 72 81
107 81 51 0 118 -77 149 -170 21 -67 24 -92 24 -230 0 -121 -5 -168 -19 -215
-26 -86 -60 -147 -101 -183 -52 -47 -84 -43 -134 14 -23 26 -41 53 -41 60 0 7
-4 15 -9 18 -4 3 -6 -5 -4 -18 7 -35 75 -120 106 -130 64 -23 148 69 195 213
22 67 25 94 26 236 1 174 -7 219 -55 316 -45 91 -107 134 -160 111z"/>
<path d="M991 1919 c-5 -13 -7 -26 -6 -29 2 -3 36 -3 77 -1 l73 4 -48 8 c-27
4 -57 15 -68 25 -18 16 -19 16 -28 -7z"/>
<path d="M1207 1903 c18 -2 50 -2 70 0 21 2 7 4 -32 4 -38 0 -55 -2 -38 -4z"/>
<path d="M1260 1854 c-8 -2 -78 -5 -155 -6 l-139 -3 -18 -75 c-9 -41 -17 -90
-18 -107 l0 -33 239 0 240 0 6 58 c3 31 10 79 16 105 5 27 7 53 3 58 -5 8
-141 11 -174 3z m144 -17 c17 -13 18 -19 7 -82 -20 -113 -1 -105 -235 -105
-177 0 -205 2 -210 16 -11 28 -6 91 9 127 17 41 21 42 240 46 77 1 141 4 144
7 8 8 27 4 45 -9z"/>
<path d="M1366 1793 c-3 -16 -8 -43 -11 -62 -3 -19 -8 -38 -11 -43 -3 -4 4 -8
15 -8 15 0 21 7 22 23 0 12 2 29 4 37 15 67 15 80 1 80 -8 0 -17 -12 -20 -27z"/>
<path d="M1017 1782 c-10 -10 -17 -25 -16 -33 0 -8 4 -4 9 8 18 43 87 37 87
-7 0 -12 -12 -15 -54 -13 -49 2 -53 0 -53 -22 0 -12 7 -26 16 -29 50 -19 104
12 104 59 0 14 5 25 10 25 6 0 10 5 10 11 0 6 -7 9 -15 6 -8 -4 -17 -2 -20 3
-10 17 -61 11 -78 -8z m63 -82 c-8 -5 -24 -10 -35 -10 -11 0 -27 5 -35 10 -11
7 -1 10 35 10 36 0 46 -3 35 -10z"/>
<path d="M1194 1779 c-6 -11 4 -29 16 -29 5 0 6 8 3 18 -7 16 -6 16 10 0 10
-9 24 -15 32 -12 19 8 19 -3 0 -22 -8 -9 -15 -11 -15 -4 0 17 -74 6 -78 -12
-3 -14 23 -16 106 -9 6 1 12 10 12 20 0 11 5 23 10 26 6 3 10 12 10 19 0 15
-97 19 -106 5z"/>
<path d="M1621 1581 c-1 -34 2 -42 11 -33 8 8 8 20 1 44 l-11 33 -1 -44z"/>
<path d="M920 1489 c0 -57 4 -109 8 -115 4 -7 80 -14 212 -18 113 -4 219 -9
236 -12 l31 -6 -2 122 -1 122 -242 5 -242 5 0 -103z m454 61 c13 -13 19 -93
12 -144 l-7 -45 -102 5 c-56 4 -122 7 -147 9 -25 1 -71 3 -103 4 -56 1 -58 2
-73 36 -17 41 -18 81 -3 124 l11 32 202 -6 c110 -4 205 -10 210 -15z"/>
<path d="M995 1514 c-22 -23 -17 -88 8 -90 12 -1 13 -1 2 3 -31 10 -13 18 31
14 32 -2 42 -6 33 -12 -11 -7 -10 -9 4 -9 13 0 17 8 17 39 0 22 5 41 13 44 6
2 8 8 4 13 -4 5 -12 3 -16 -4 -6 -10 -11 -10 -21 3 -16 20 -54 19 -75 -1z m66
-4 c10 -6 19 -18 19 -28 0 -13 -9 -17 -44 -17 -35 0 -43 3 -42 18 1 17 22 37
39 37 5 0 17 -5 28 -10z"/>
<path d="M1342 1463 c2 -39 7 -67 13 -65 14 3 14 112 1 112 -6 0 -4 5 4 10 13
8 12 10 -3 10 -16 0 -18 -8 -15 -67z"/>
<path d="M1150 1498 c0 -15 10 -18 50 -19 28 -1 56 -2 62 -3 7 -1 14 7 16 17
3 13 -4 17 -32 17 -19 0 -38 -4 -41 -10 -3 -5 -12 -10 -18 -10 -7 0 -6 4 3 10
13 8 12 10 -2 10 -10 0 -18 -6 -18 -12 0 -9 -4 -8 -10 2 -8 13 -10 12 -10 -2z"/>
<path d="M1146 1444 c-3 -8 8 -13 30 -16 33 -4 46 5 22 15 -10 4 -10 6 -1 6 6
1 15 -3 18 -9 10 -16 45 -12 45 5 0 8 -4 15 -10 15 -5 0 -10 -6 -10 -12 0 -10
-2 -10 -8 -1 -10 16 -80 14 -86 -3z"/>
<path d="M937 1323 c-5 -4 11 -81 34 -165 9 -37 11 -38 52 -37 l42 1 -32 9
c-25 7 -35 19 -48 52 -9 24 -15 59 -13 78 3 34 3 34 53 34 87 0 357 -15 366
-20 12 -8 31 -106 27 -140 -3 -28 -6 -30 -43 -29 -34 0 -124 7 -240 18 -16 2
-39 0 -49 -4 -11 -3 48 -12 130 -19 82 -6 170 -14 196 -17 l47 -6 -11 39 c-6
21 -16 70 -22 108 l-12 70 -220 12 c-120 7 -227 14 -236 16 -9 3 -19 3 -21 0z"/>
<path d="M1017 1240 c-8 -11 -16 -17 -19 -14 -3 3 -9 1 -13 -5 -3 -6 1 -11 9
-11 9 0 16 -4 16 -10 0 -36 95 -70 104 -37 9 29 15 91 7 79 -6 -10 -10 -10
-21 3 -18 22 -66 19 -83 -5z m63 0 c0 -5 5 -9 12 -7 7 1 13 -8 14 -20 1 -19
-4 -23 -30 -23 -25 0 -28 2 -16 11 12 8 10 10 -11 6 -22 -3 -26 0 -24 17 3 28
1 26 30 26 14 0 25 -4 25 -10z m30 -70 c0 -13 -50 -13 -70 0 -11 7 -4 10 28
10 23 0 42 -4 42 -10z"/>
<path d="M1170 1232 c0 -17 6 -22 28 -22 15 0 36 7 46 15 19 14 18 15 -12 15
-19 0 -32 -5 -32 -12 0 -8 -7 -5 -15 6 -15 19 -15 19 -15 -2z"/>
<path d="M1364 1194 c4 -31 9 -61 12 -66 11 -17 25 5 20 30 -3 15 -7 42 -8 60
-1 20 -8 32 -17 32 -11 0 -12 -11 -7 -56z"/>
<path d="M1256 1225 c-19 -15 -19 -15 3 -15 17 0 22 -4 17 -16 -3 -9 -6 -18
-6 -20 0 -3 -10 2 -22 10 -16 11 -25 13 -35 4 -9 -8 -13 -7 -13 1 0 7 -4 9
-10 6 -5 -3 -10 -12 -10 -20 0 -17 28 -13 42 6 8 11 9 11 4 -3 -3 -10 -1 -20
4 -23 6 -4 10 -2 10 3 0 5 11 7 25 4 19 -3 25 0 25 14 0 11 3 29 6 42 7 26
-11 29 -40 7z"/>
<path d="M1000 1080 c0 -7 16 -43 36 -81 33 -63 39 -69 68 -68 28 0 29 1 9 9
-28 11 -63 67 -63 99 0 24 1 24 73 18 39 -4 88 -9 107 -11 90 -12 184 -16 175
-8 -6 5 -92 17 -191 25 -100 9 -189 19 -198 23 -9 4 -16 1 -16 -6z"/>
<path d="M1088 1021 c-14 -17 -15 -21 -4 -21 8 0 17 -8 20 -18 5 -13 16 -17
53 -15 l48 1 -40 -7 -40 -8 41 -2 c38 -1 42 1 40 23 0 13 -5 22 -10 19 -4 -3
-5 3 -2 14 4 13 1 19 -12 20 -9 1 -30 5 -47 8 -23 5 -34 1 -47 -14z m81 -12
c28 -27 25 -30 -23 -19 -43 10 -51 15 -41 29 10 17 39 13 64 -10z"/>
<path d="M1437 1028 c12 -6 30 -32 42 -59 20 -49 20 -49 0 -63 -19 -13 -18
-14 18 -18 21 -3 39 -4 41 -3 1 1 -14 36 -34 79 -32 67 -39 76 -63 75 -25 0
-25 -1 -4 -11z"/>
<path d="M1766 1014 c-3 -9 -6 -30 -5 -47 0 -18 3 -25 6 -17 2 8 7 22 10 30 9
24 10 50 2 50 -4 0 -10 -7 -13 -16z"/>
<path d="M1236 1005 c8 -21 74 -21 74 0 0 13 -4 14 -21 4 -15 -8 -19 -8 -15 0
4 6 3 11 -3 11 -5 0 -12 -6 -14 -12 -4 -10 -6 -10 -6 0 -1 6 -5 12 -11 12 -5
0 -7 -7 -4 -15z"/>
<path d="M1423 965 c12 -30 28 -55 36 -55 7 0 11 6 8 13 -32 80 -41 97 -52 97
-10 0 -8 -14 8 -55z"/>
<path d="M1260 963 c0 -7 10 -13 23 -14 12 0 34 -2 50 -3 17 -1 27 3 27 12 0
10 -10 12 -36 8 -19 -4 -33 -3 -30 2 2 4 -4 8 -15 8 -10 0 -19 -6 -19 -13z"/>
<path d="M1230 920 c8 -5 31 -9 50 -9 l35 1 -30 8 c-16 4 -39 8 -50 9 -16 1
-17 -1 -5 -9z"/>
<path d="M1100 901 c0 -6 19 -24 42 -41 41 -30 65 -39 53 -20 -3 6 -1 10 4 10
6 0 11 -4 11 -9 0 -5 18 -16 40 -25 22 -9 40 -18 40 -21 0 -3 -18 -12 -40 -21
-49 -20 -51 -29 -4 -32 29 -2 35 0 32 15 -2 14 5 19 31 21 46 5 193 -16 205
-28 6 -6 21 -10 35 -11 15 0 42 -6 61 -12 24 -9 53 -10 95 -4 83 12 88 23 14
30 -58 5 -65 9 -113 56 -43 42 -58 51 -86 50 l-35 -1 34 -12 c33 -12 87 -63
77 -73 -3 -3 -20 -3 -39 1 -25 5 -42 17 -62 46 -32 46 -51 54 -105 45 -22 -4
-40 -3 -40 2 0 5 -49 14 -110 21 -60 7 -116 15 -125 18 -8 3 -15 1 -15 -5z
m224 -43 c-3 -4 3 -9 13 -10 10 0 23 -2 28 -3 6 -2 18 -3 28 -4 10 0 15 -6 12
-11 -4 -6 -11 -8 -16 -5 -5 4 -9 1 -9 -4 0 -6 11 -11 25 -11 22 0 24 3 15 25
-12 33 9 34 36 3 53 -60 53 -60 -2 -53 -119 16 -149 25 -160 50 -7 13 -9 26
-7 29 8 8 42 2 37 -6z"/>
<path d="M1835 780 c-27 -17 -46 -30 -42 -30 13 0 85 39 92 50 8 14 7 13 -50
-20z"/>
</g>
</svg>
