<?xml version="1.0" standalone="no"?>
<!DOCTYPE svg PUBLIC "-//W3C//DTD SVG 20010904//EN"
 "http://www.w3.org/TR/2001/REC-SVG-20010904/DTD/svg10.dtd">
<svg version="1.0" xmlns="http://www.w3.org/2000/svg"
 width="225.000000pt" height="225.000000pt" viewBox="0 0 225.000000 225.000000"
 preserveAspectRatio="xMidYMid meet">
<metadata>
Created by potrace 1.10, written by Peter Selinger 2001-2011
</metadata>
<g transform="translate(0.000000,225.000000) scale(0.100000,-0.100000)"
fill="#000000" stroke="none">
<path d="M610 1812 c-30 -26 -34 -36 -41 -98 -10 -87 -9 -251 1 -284 6 -20 13
140 11 263 0 9 4 17 10 17 5 0 9 11 9 25 0 14 7 28 16 32 9 3 20 15 24 27 7
18 9 18 9 3 1 -14 6 -17 21 -12 21 7 21 12 26 -235 0 -30 2 -66 3 -80 3 -22 4
-21 12 10 5 19 6 100 3 180 -5 129 -8 147 -26 163 -27 23 -38 22 -78 -11z"/>
<path d="M1476 1788 c-10 -14 -16 -46 -17 -88 -2 -141 -24 -359 -35 -352 -6 4
-11 16 -10 27 2 30 -34 253 -51 315 -8 30 -20 58 -26 62 -22 14 -64 8 -82 -12
-15 -17 -17 -31 -11 -117 11 -144 38 -295 55 -301 11 -4 12 0 6 14 -12 29 -23
112 -24 181 -1 34 -6 84 -12 111 -7 30 -8 59 -3 75 9 25 10 26 39 11 17 -8 31
-22 32 -32 0 -9 6 -44 12 -77 7 -33 12 -72 11 -87 0 -16 4 -28 9 -28 5 0 13
-26 17 -57 7 -64 25 -108 47 -116 14 -5 16 4 33 143 2 14 6 81 10 150 4 80 11
132 20 145 8 11 14 16 14 11 0 -5 6 -3 14 3 11 9 15 5 19 -21 16 -99 15 -374
-1 -390 -7 -7 -12 -19 -12 -27 0 -11 7 -9 25 9 22 22 25 37 31 125 8 132 -10
315 -33 333 -26 19 -60 14 -77 -10z"/>
<path d="M794 1772 c-6 -4 -16 -53 -23 -110 -7 -56 -19 -126 -27 -155 -19 -66
-29 -148 -16 -127 5 8 15 39 23 68 10 42 15 49 21 35 6 -12 7 -8 4 13 -3 17
-1 35 5 41 5 5 12 51 15 103 8 108 15 125 47 107 49 -28 55 -58 37 -172 -6
-39 -7 -72 -2 -82 12 -21 37 164 29 213 -3 20 -16 44 -28 55 -22 19 -65 25
-85 11z"/>
<path d="M391 1719 c-19 -21 -21 -33 -20 -143 0 -67 6 -152 12 -190 11 -65 12
-60 12 112 1 198 6 219 52 201 13 -5 29 -7 34 -4 12 8 17 -25 22 -140 2 -56 9
-110 15 -120 19 -35 24 5 9 85 -8 41 -12 95 -10 120 4 55 -20 88 -70 97 -27 4
-39 0 -56 -18z"/>
<path d="M1728 1697 c-15 -12 -58 -121 -58 -147 0 -6 -12 -36 -26 -66 -14 -30
-24 -62 -21 -72 5 -22 59 93 78 166 7 28 16 52 21 52 4 0 8 5 8 11 0 12 21 33
35 36 6 1 22 -7 35 -17 20 -15 23 -21 13 -31 -7 -7 -13 -28 -13 -46 0 -18 -5
-33 -10 -33 -6 0 -10 -6 -9 -12 3 -18 -12 -91 -21 -103 -7 -9 -40 -116 -44
-143 -1 -7 -6 -12 -10 -12 -4 1 -15 -14 -25 -32 -22 -45 -50 -47 -97 -6 -20
18 -35 27 -33 19 3 -7 31 -32 63 -54 45 -32 61 -39 74 -31 17 11 51 100 92
244 12 41 28 94 36 118 37 115 24 172 -39 172 -17 0 -40 -6 -49 -13z"/>
<path d="M947 1582 c-10 -10 -17 -24 -17 -30 0 -6 -13 -45 -30 -87 -16 -42
-30 -90 -29 -108 0 -27 3 -22 19 28 10 33 25 76 34 95 15 30 16 31 11 8 -3
-16 -7 -40 -10 -55 -4 -17 0 -12 9 12 9 22 18 59 22 83 5 37 10 43 28 40 36
-5 43 -62 19 -160 -12 -50 -24 -82 -32 -80 -7 1 -9 -6 -5 -22 3 -13 0 -35 -7
-48 -14 -27 -28 -83 -34 -148 -3 -25 -9 -56 -14 -70 -5 -14 -15 -69 -22 -122
-10 -81 -10 -104 1 -140 8 -24 13 -51 12 -61 -1 -10 2 -16 7 -13 5 3 11 -8 13
-25 3 -16 1 -32 -4 -35 -4 -3 -8 -10 -8 -15 0 -6 5 -7 10 -4 6 3 10 2 10 -4 0
-5 3 -16 6 -25 9 -23 -23 -32 -181 -50 -262 -30 -327 -17 -309 64 3 14 7 39
10 55 2 17 6 44 9 60 4 22 2 26 -5 15 -7 -10 -10 10 -10 67 0 45 -5 94 -11
110 -7 15 -18 53 -25 83 l-13 55 5 -48 c3 -27 12 -67 20 -89 19 -53 17 -83 -3
-38 -8 19 -18 37 -22 40 -10 7 -51 94 -51 108 0 7 -5 12 -11 12 -5 0 -8 4 -4
9 3 5 -1 29 -9 53 -36 106 -58 346 -24 258 7 -20 11 -22 18 -10 8 12 10 11 10
-5 0 -15 2 -17 9 -6 6 9 14 -2 26 -40 10 -30 21 -58 26 -64 12 -13 12 41 -1
63 -5 9 -16 34 -24 55 -23 58 -91 72 -109 22 -6 -14 41 -272 63 -345 6 -19 24
-57 40 -85 16 -27 37 -63 46 -80 10 -18 19 -65 23 -120 6 -74 4 -99 -11 -139
-18 -46 -18 -49 -2 -67 32 -35 117 -52 224 -45 140 11 272 30 294 43 28 16 25
88 -9 208 l-28 98 18 96 c31 170 78 361 109 451 23 67 21 165 -4 190 -25 25
-52 26 -73 2z"/>
<path d="M1100 1540 c-28 -24 -26 -90 4 -160 13 -30 34 -80 47 -110 13 -30 26
-57 30 -60 4 -3 15 -43 24 -90 9 -47 23 -115 30 -151 8 -36 15 -106 16 -155 2
-135 23 -236 57 -276 20 -23 143 -25 225 -3 32 8 78 15 102 15 49 0 50 1 35
67 -7 31 -6 52 5 84 9 24 13 56 10 71 -5 22 0 37 24 67 31 38 91 151 91 169 0
13 106 115 128 124 9 3 32 20 50 37 42 39 43 75 2 96 -46 24 -74 18 -162 -31
-87 -48 -110 -64 -90 -64 19 0 92 32 92 40 0 9 50 25 88 29 7 0 10 6 7 11 -10
16 18 11 44 -9 21 -16 22 -20 10 -39 -8 -12 -19 -22 -25 -22 -6 0 -28 -18 -50
-39 -26 -27 -41 -36 -46 -28 -5 8 -8 7 -8 -4 0 -8 -13 -28 -30 -44 -16 -15
-34 -43 -41 -62 -6 -18 -15 -33 -20 -33 -6 0 -9 -6 -7 -13 2 -7 -13 -27 -32
-44 -32 -29 -33 -31 -10 -26 l24 6 -24 -30 c-14 -17 -28 -28 -32 -26 -5 2 -6
-15 -3 -39 4 -30 2 -39 -5 -28 -5 8 -10 13 -10 10 -6 -51 -4 -159 2 -172 8
-17 -1 -23 -26 -19 -5 1 -39 -5 -75 -13 -36 -8 -102 -17 -147 -21 -70 -6 -82
-4 -95 11 -8 10 -9 15 -2 11 9 -6 8 4 -3 35 -8 23 -12 48 -9 56 2 7 0 10 -5 7
-16 -10 -23 43 -17 131 3 57 1 82 -6 77 -6 -4 -7 -1 -2 7 4 7 3 35 -3 64 -6
28 -18 92 -27 141 -10 50 -22 93 -27 96 -6 4 -7 12 -4 18 4 6 3 11 -1 11 -5 0
-15 17 -22 38 -7 20 -27 66 -44 102 -37 79 -42 144 -11 148 11 2 29 -7 39 -18
17 -18 17 -23 5 -32 -13 -8 -12 -9 2 -5 12 4 18 -2 23 -24 4 -16 10 -27 14
-24 5 2 13 -7 20 -21 6 -14 16 -22 21 -19 6 4 7 13 2 23 -5 9 -19 40 -32 67
-13 28 -30 56 -37 63 -7 7 -13 17 -13 22 0 17 -50 17 -70 0z"/>
<path d="M640 1239 l0 -49 68 0 c37 0 77 -3 88 -6 19 -5 22 -1 26 38 3 23 2
46 -1 49 -3 4 -45 9 -93 12 l-88 5 0 -49z m100 12 c6 -10 10 -11 10 -3 0 7 14
12 38 12 23 0 32 -3 24 -8 -7 -5 -10 -16 -6 -26 6 -15 3 -15 -21 -4 -23 10
-29 10 -39 -2 -13 -17 -56 -26 -56 -11 0 5 10 12 23 14 12 3 4 5 -17 4 -33 -2
-40 1 -43 21 -3 21 0 23 38 20 24 -1 44 -8 49 -17z"/>
<path d="M653 1154 c-3 -8 1 -22 9 -31 14 -13 15 -11 14 16 -1 33 -13 41 -23
15z"/>
<path d="M740 1110 c-9 -16 -8 -20 5 -20 8 0 15 5 15 10 0 6 5 10 10 10 19 0
10 -21 -12 -30 -13 -5 -18 -9 -13 -10 6 0 4 -4 -4 -9 -9 -6 -6 -8 12 -8 17 0
24 4 21 12 -3 7 -1 16 5 20 17 10 13 23 -9 35 -15 8 -21 6 -30 -10z"/>
<path d="M687 1074 c3 -7 -5 -14 -19 -17 -17 -3 -15 -5 10 -6 25 -1 32 3 32
17 0 10 -6 19 -14 19 -8 0 -12 -6 -9 -13z"/>
<path d="M1621 773 c-6 -21 -10 -67 -9 -103 l1 -65 7 85 c4 47 11 93 15 103 4
9 5 17 2 17 -4 0 -11 -17 -16 -37z"/>
<path d="M1372 733 c-6 -2 -10 -9 -6 -14 3 -5 0 -9 -5 -9 -6 0 -11 -6 -11 -14
0 -8 -5 -16 -11 -18 -7 -2 -5 -9 5 -17 14 -12 16 -11 16 5 1 48 59 73 80 34
12 -23 30 -27 30 -6 0 35 -55 57 -98 39z"/>
<path d="M1380 654 c0 -14 -4 -22 -10 -19 -6 4 -7 -1 -4 -12 4 -12 0 -10 -15
7 -22 26 -29 16 -8 -11 31 -41 110 -29 128 19 5 14 7 27 5 30 -3 3 -10 -7 -15
-22 -12 -30 -26 -33 -41 -8 -8 14 -9 12 -6 -10 5 -29 -3 -35 -21 -17 -14 14
-4 57 16 62 11 3 9 5 -6 6 -18 1 -23 -4 -23 -25z"/>
</g>
</svg>
