<?xml version="1.0" standalone="no"?>
<!DOCTYPE svg PUBLIC "-//W3C//DTD SVG 20010904//EN"
 "http://www.w3.org/TR/2001/REC-SVG-20010904/DTD/svg10.dtd">
<svg version="1.0" xmlns="http://www.w3.org/2000/svg"
 width="300.000000pt" height="201.000000pt" viewBox="0 0 300.000000 201.000000"
 preserveAspectRatio="xMidYMid meet">
<metadata>
Created by potrace 1.10, written by Peter Selinger 2001-2011
</metadata>
<g transform="translate(0.000000,201.000000) scale(0.100000,-0.100000)"
fill="#000000" stroke="none">
<path d="M2292 1380 c-17 -30 -32 -59 -32 -63 0 -5 -9 -21 -20 -37 l-20 -28
21 -5 c18 -5 26 5 56 68 19 41 33 84 31 97 -3 20 -8 15 -36 -32z"/>
<path d="M2015 1225 c-21 -19 -53 -37 -71 -41 -19 -3 -99 -1 -177 5 -378 29
-676 23 -940 -20 -369 -60 -664 -197 -739 -343 -18 -35 -20 -51 -14 -119 4
-44 13 -93 20 -111 31 -71 127 -135 261 -172 92 -26 379 -31 526 -9 441 64
880 260 1146 512 l51 49 339 -42 c186 -24 352 -45 368 -48 53 -10 58 1 67 141
10 145 6 153 -62 153 -20 0 -87 6 -150 14 -63 8 -171 20 -240 26 -69 6 -173
18 -232 26 -59 8 -109 14 -112 14 -2 0 -21 -16 -41 -35z m84 -19 c-3 -28 3
-36 28 -36 l26 0 -23 20 -23 20 79 -4 c104 -4 285 -27 304 -37 13 -7 13 -8 -1
-9 -20 0 -32 -26 -24 -51 4 -11 20 -20 43 -23 74 -12 217 -24 226 -19 4 3 6
22 3 42 -5 37 -4 37 27 33 51 -7 56 -16 50 -97 -9 -118 -9 -120 -50 -120 -26
-1 -30 5 -14 21 21 21 -9 62 -49 68 -155 24 -315 31 -219 11 18 -4 39 -12 46
-17 8 -7 12 -7 12 1 0 20 20 12 30 -11 7 -18 9 -19 9 -5 1 27 31 21 31 -6 0
-28 -9 -39 -23 -30 -9 5 -46 11 -112 16 -11 1 -21 12 -25 27 l-6 25 -8 -29
c-7 -29 -7 -29 -64 -21 -31 4 -90 9 -131 10 -48 2 -76 7 -82 16 -5 9 -25 13
-53 13 -25 -1 -43 2 -40 7 8 14 -4 11 -31 -7 -14 -9 -25 -13 -25 -10 0 3 -33
-20 -74 -53 -288 -229 -763 -408 -1166 -439 -289 -23 -521 23 -629 126 l-42
40 16 38 c74 179 372 319 805 379 177 25 586 30 807 11 186 -16 234 -27 266
-63 18 -20 18 -20 47 9 36 35 39 46 7 25 -20 -13 -25 -13 -42 0 -11 8 -19 19
-17 25 1 6 -4 21 -12 33 -14 22 -14 23 9 29 13 3 30 12 37 19 30 31 79 45 77
23z m-145 -65 c4 -5 3 -17 0 -26 -6 -15 -8 -14 -25 1 -11 9 -19 21 -19 26 0
11 37 10 44 -1z m547 -8 c0 -11 3 -13 6 -5 2 6 12 12 20 12 13 0 13 -3 3 -15
-10 -12 -10 -15 4 -15 9 0 16 7 16 15 0 21 20 19 21 -2 0 -15 2 -15 9 2 8 19
9 19 9 -2 1 -25 21 -32 21 -8 0 8 7 15 16 15 8 0 13 -4 9 -9 -3 -5 -1 -12 5
-16 5 -3 10 1 10 9 0 10 8 14 28 11 15 -2 33 -4 40 -4 15 -1 16 -37 1 -46 -6
-4 -13 2 -16 14 -6 23 -23 29 -23 8 0 -14 -14 -14 -105 -2 -33 4 -69 8 -80 9
-18 1 -27 20 -18 39 7 14 23 7 24 -10z m-1876 -61 c-11 -2 -30 -8 -41 -14 -12
-5 -30 -8 -40 -5 -13 3 -10 5 9 6 19 1 26 5 21 13 -4 6 -3 9 2 6 5 -3 18 -2
29 2 11 4 25 5 30 1 6 -3 1 -7 -10 -9z m2025 -92 c0 -20 -5 -30 -15 -30 -10 0
-15 10 -15 30 0 20 5 30 15 30 10 0 15 -10 15 -30z m88 -4 c5 -24 -12 -41 -30
-30 -7 5 -21 7 -30 6 -13 -2 -18 4 -18 22 0 23 4 25 37 22 27 -1 39 -7 41 -20z
m-2378 6 c0 -9 -60 -36 -66 -29 -3 3 7 12 23 20 33 18 43 20 43 9z m-137 -86
c-33 -25 -63 -51 -66 -58 -4 -9 -6 -9 -6 -1 -2 21 92 103 117 103 9 0 -11 -20
-45 -44z m-113 -66 c-6 -12 -15 -40 -20 -63 -6 -32 -8 -35 -9 -14 -1 28 23 97
34 97 3 0 1 -9 -5 -20z m1663 -60 c-23 -23 -341 -173 -428 -203 -122 -42 -236
-77 -252 -77 -7 0 -32 -6 -55 -14 -137 -45 -532 -58 -678 -22 -71 17 -160 59
-184 85 -27 30 -11 39 23 13 33 -24 133 -57 206 -68 28 -3 61 -8 75 -10 56 -9
334 -4 392 6 35 6 92 15 128 21 36 6 76 14 90 19 14 5 70 21 125 35 116 32
236 73 250 86 5 5 17 9 27 9 10 0 18 5 18 10 0 6 6 10 14 10 8 0 39 13 68 29
29 16 64 32 78 36 14 4 40 18 59 31 31 21 65 24 44 4z m-1611 -180 c5 0 6 -4
3 -10 -13 -20 -32 -9 -55 33 l-24 42 34 -32 c19 -18 38 -33 42 -33z"/>
<path d="M2190 1167 c-19 -26 -15 -67 6 -67 11 0 13 4 5 17 -7 13 -5 23 6 36
10 11 13 21 7 26 -5 6 -15 1 -24 -12z"/>
<path d="M2181 1038 c-1 -31 9 -40 29 -27 8 5 10 9 4 9 -6 0 -16 10 -22 23
-11 22 -11 22 -11 -5z"/>
</g>
</svg>
